<svg width="1147" height="407" viewBox="0 0 1147 407" fill="none" xmlns="http://www.w3.org/2000/svg">
<path d="M217.734 32.5L208.836 63.4961L207.92 66.6865H354.456L354.977 64.876L364.271 32.5H400.463L391.564 63.4961L390.648 66.6865H472.392L570.578 374.5H430.258L439.688 343.62H530.626L529.535 340.333L458.608 126.562L456.052 118.855L453.831 126.665L383.361 374.5H3.36133L95.7998 66.6865H171.728L172.248 64.876L181.543 32.5H217.734ZM114.794 99.3818L46.2393 340.437L45.333 343.62H358.924L359.44 341.804L427.995 100.75L428.9 97.5664H381.81L381.29 99.376L372.262 130.834H336.069L344.702 100.756L345.617 97.5664H199.081L198.562 99.376L189.533 130.834H153.341L161.974 100.756L162.889 97.5664H115.311L114.794 99.3818Z" stroke="black" stroke-opacity="0.05" stroke-width="5"/>
<path d="M791.734 374.5L782.836 343.504L781.92 340.313H928.456L928.977 342.124L938.271 374.5H974.463L965.564 343.504L964.648 340.313H1046.39L1143.59 32.5H1004.26L1013.69 63.3799H1104.63L1103.54 66.667L1032.61 280.438L1030.05 288.145L1027.83 280.335L957.361 32.5H577.351L668.806 340.313H745.728L746.248 342.124L755.543 374.5H791.734ZM688.794 307.618L620.239 66.5635L619.333 63.3799H932.924L933.44 65.1963L1002 306.25L1002.9 309.434H955.81L955.29 307.624L946.262 276.166H910.069L918.702 306.244L919.617 309.434H773.081L772.562 307.624L763.533 276.166H727.341L735.974 306.244L736.889 309.434H689.311L688.794 307.618Z" stroke="black" stroke-opacity="0.05" stroke-width="5"/>
</svg>
