<svg width="630" height="180" viewBox="0 0 630 180" fill="none" xmlns="http://www.w3.org/2000/svg">
<g clip-path="url(#clip0_0_1)">
<path d="M90 180L270 180V65.0475C253.665 62.0662 232.02 62.5388 227.092 62.6963C224.685 62.6288 223.763 63.9788 222.007 66.8587C221.4 67.8938 221.153 68.58 221.062 68.9512C221.737 69.2213 223.076 69.5138 223.864 69.6825C226.193 70.1775 228.037 70.5825 228.656 72.1125C229.208 73.6312 228.746 74.79 228.409 75.645C228.33 75.8363 228.251 76.0275 228.184 76.23C226.586 80.9325 223.301 84.42 219.184 85.8262C216.248 86.8275 211.556 87.2213 205.841 83.43C204.143 82.3163 202.455 80.6738 200.824 79.0875C196.042 74.4075 193.478 72.495 190.643 75.06C157.736 99.945 151.504 113.558 136.721 152.843C136.294 153.968 135.945 154.924 135.675 155.7C134.977 157.646 134.708 158.378 134.201 158.895C133.391 159.716 132.143 159.761 131.243 159.03L130.984 158.771C130.871 158.636 119.171 144.45 116.224 120.724C115.819 117.63 115.549 113.951 115.481 110.655C114.739 79.9538 129.814 56.9925 155.79 49.275C161.933 47.1712 170.032 46.0013 176.366 45.6637C174.836 43.56 172.418 39.96 170.325 35.7637C169.099 33.3337 167.816 30.8025 165.476 29.9812C159.277 28.6762 151.594 28.0462 144.169 27.4275C139.163 27.0113 134.426 26.6287 130.162 26.0437L128.857 25.9088C126.844 25.7063 125.516 25.5712 124.605 24.4462C123.671 23.2875 123.84 21.7125 124.02 20.1937C125.111 12.0488 127.676 5.41124 131.58 0.0112457H90.0225L90.0225 180H90Z" fill="#F2F2F2"/>
<path d="M209.88 14.4112C208.968 16.1325 209.745 18.45 210.836 21.2962C212.512 25.5037 213.412 29.25 214.121 32.6138C218.891 29.1038 225.618 25.0538 231.637 22.8375C243.877 17.7638 257.028 17.01 269.988 20.2275V0L223.188 0C218.317 4.8375 213.322 9.8325 209.88 14.4112Z" fill="#F2F2F2"/>
</g>
<g clip-path="url(#clip1_0_1)">
<path d="M450 180L630 180V65.0475C613.665 62.0662 592.02 62.5388 587.092 62.6963C584.685 62.6288 583.763 63.9788 582.007 66.8587C581.4 67.8938 581.153 68.58 581.062 68.9512C581.737 69.2213 583.076 69.5138 583.864 69.6825C586.193 70.1775 588.037 70.5825 588.656 72.1125C589.208 73.6312 588.746 74.79 588.409 75.645C588.33 75.8363 588.251 76.0275 588.184 76.23C586.586 80.9325 583.301 84.42 579.184 85.8262C576.248 86.8275 571.556 87.2213 565.841 83.43C564.143 82.3163 562.455 80.6738 560.824 79.0875C556.042 74.4075 553.478 72.495 550.643 75.06C517.736 99.945 511.504 113.558 496.721 152.843C496.294 153.968 495.945 154.924 495.675 155.7C494.977 157.646 494.708 158.378 494.201 158.895C493.391 159.716 492.143 159.761 491.243 159.03L490.984 158.771C490.871 158.636 479.171 144.45 476.224 120.724C475.819 117.63 475.549 113.951 475.481 110.655C474.739 79.9538 489.814 56.9925 515.79 49.275C521.933 47.1712 530.032 46.0013 536.366 45.6637C534.836 43.56 532.418 39.96 530.325 35.7637C529.099 33.3337 527.816 30.8025 525.476 29.9812C519.277 28.6762 511.594 28.0462 504.169 27.4275C499.163 27.0113 494.426 26.6287 490.162 26.0437L488.857 25.9088C486.844 25.7063 485.516 25.5712 484.605 24.4462C483.671 23.2875 483.84 21.7125 484.02 20.1937C485.111 12.0488 487.676 5.41124 491.58 0.0112457H450.023V180H450Z" fill="#F2F2F2"/>
<path d="M569.88 14.4112C568.968 16.1325 569.745 18.45 570.836 21.2962C572.512 25.5037 573.412 29.25 574.121 32.6138C578.891 29.1038 585.618 25.0538 591.637 22.8375C603.877 17.7638 617.028 17.01 629.988 20.2275V0L583.188 0C578.317 4.8375 573.322 9.8325 569.88 14.4112Z" fill="#F2F2F2"/>
</g>
<g clip-path="url(#clip2_0_1)">
<path d="M-90 0L-90 180H24.9525C27.9338 163.665 27.4612 142.02 27.3037 137.092C27.3712 134.685 26.0212 133.763 23.1413 132.007C22.1062 131.4 21.42 131.153 21.0488 131.062C20.7787 131.737 20.4862 133.076 20.3175 133.864C19.8225 136.193 19.4175 138.037 17.8875 138.656C16.3688 139.208 15.21 138.746 14.355 138.409C14.1637 138.33 13.9725 138.251 13.77 138.184C9.0675 136.586 5.58 133.301 4.17375 129.184C3.1725 126.248 2.77875 121.556 6.56999 115.841C7.68375 114.143 9.32625 112.455 10.9125 110.824C15.5925 106.042 17.505 103.478 14.94 100.643C-9.945 67.7363 -23.5575 61.5037 -62.8425 46.7213C-63.9675 46.2937 -64.9237 45.945 -65.7 45.675C-67.6462 44.9775 -68.3775 44.7075 -68.895 44.2012C-69.7162 43.3913 -69.7613 42.1425 -69.03 41.2425L-68.7712 40.9837C-68.6362 40.8712 -54.45 29.1712 -30.7238 26.2238C-27.63 25.8187 -23.9512 25.5487 -20.655 25.4812C10.0462 24.7387 33.0075 39.8138 40.725 65.79C42.8288 71.9325 43.9987 80.0325 44.3363 86.3662C46.44 84.8362 50.04 82.4175 54.2363 80.325C56.6663 79.0988 59.1975 77.8162 60.0188 75.4762C61.3238 69.2775 61.9538 61.5938 62.5725 54.1688C62.9887 49.1625 63.3713 44.4262 63.9563 40.1625L64.0912 38.8575C64.2937 36.8438 64.4288 35.5163 65.5538 34.605C66.7125 33.6712 68.2875 33.84 69.8063 34.02C77.9512 35.1113 84.5888 37.6763 89.9888 41.58V0.0225067H-90V0Z" fill="#F8F8F8"/>
<path d="M75.5892 119.88C73.868 118.969 71.5505 119.745 68.7042 120.836C64.4967 122.512 60.7505 123.412 57.3867 124.121C60.8967 128.891 64.9467 135.619 67.163 141.637C72.2367 153.877 72.9905 167.029 69.773 179.989H90.0005V133.189C85.163 128.317 80.168 123.322 75.5892 119.88Z" fill="#F8F8F8"/>
</g>
<g clip-path="url(#clip3_0_1)">
<path d="M270 0V180H384.952C387.934 163.665 387.461 142.02 387.304 137.092C387.371 134.685 386.021 133.763 383.141 132.007C382.106 131.4 381.42 131.153 381.049 131.062C380.779 131.737 380.486 133.076 380.317 133.864C379.822 136.193 379.418 138.037 377.888 138.656C376.369 139.208 375.21 138.746 374.355 138.409C374.164 138.33 373.972 138.251 373.77 138.184C369.067 136.586 365.58 133.301 364.174 129.184C363.173 126.248 362.779 121.556 366.57 115.841C367.684 114.143 369.326 112.455 370.912 110.824C375.592 106.042 377.505 103.478 374.94 100.643C350.055 67.7363 336.442 61.5037 297.157 46.7213C296.032 46.2937 295.076 45.945 294.3 45.675C292.354 44.9775 291.622 44.7075 291.105 44.2012C290.284 43.3913 290.239 42.1425 290.97 41.2425L291.229 40.9837C291.364 40.8712 305.55 29.1712 329.276 26.2238C332.37 25.8187 336.049 25.5487 339.345 25.4812C370.046 24.7387 393.007 39.8138 400.725 65.79C402.829 71.9325 403.999 80.0325 404.336 86.3662C406.44 84.8362 410.04 82.4175 414.236 80.325C416.666 79.0988 419.198 77.8162 420.019 75.4762C421.324 69.2775 421.954 61.5938 422.572 54.1688C422.989 49.1625 423.371 44.4262 423.956 40.1625L424.091 38.8575C424.294 36.8438 424.429 35.5163 425.554 34.605C426.713 33.6712 428.288 33.84 429.806 34.02C437.951 35.1113 444.589 37.6763 449.989 41.58V0.0225067H270V0Z" fill="#F8F8F8"/>
<path d="M435.589 119.88C433.868 118.969 431.55 119.745 428.704 120.836C424.497 122.512 420.75 123.412 417.387 124.121C420.897 128.891 424.947 135.619 427.163 141.637C432.237 153.877 432.99 167.029 429.773 179.989H450V133.189C445.163 128.317 440.168 123.322 435.589 119.88Z" fill="#F8F8F8"/>
</g>
<defs>
<clipPath id="clip0_0_1">
<rect width="180" height="180" fill="white" transform="matrix(-1 0 0 -1 270 180)"/>
</clipPath>
<clipPath id="clip1_0_1">
<rect width="180" height="180" fill="white" transform="matrix(-1 0 0 -1 630 180)"/>
</clipPath>
<clipPath id="clip2_0_1">
<rect width="180" height="180" fill="white" transform="matrix(0 -1 1 0 -90 180)"/>
</clipPath>
<clipPath id="clip3_0_1">
<rect width="180" height="180" fill="white" transform="matrix(0 -1 1 0 270 180)"/>
</clipPath>
</defs>
</svg>
