<svg width="360" height="360" viewBox="0 0 360 360" fill="none" xmlns="http://www.w3.org/2000/svg">
<g clip-path="url(#clip0_0_1)">
<path d="M360 180H180V294.952C196.335 297.934 217.98 297.461 222.908 297.304C225.315 297.371 226.237 296.021 227.993 293.141C228.6 292.106 228.847 291.42 228.938 291.049C228.263 290.779 226.924 290.486 226.136 290.317C223.807 289.822 221.963 289.418 221.344 287.888C220.792 286.369 221.254 285.21 221.591 284.355C221.67 284.164 221.749 283.972 221.816 283.77C223.414 279.067 226.699 275.58 230.816 274.174C233.752 273.173 238.444 272.779 244.159 276.57C245.857 277.684 247.545 279.326 249.176 280.912C253.958 285.592 256.522 287.505 259.357 284.94C292.264 260.055 298.496 246.442 313.279 207.157C313.706 206.032 314.055 205.076 314.325 204.3C315.023 202.354 315.292 201.622 315.799 201.105C316.609 200.284 317.857 200.239 318.757 200.97L319.016 201.229C319.129 201.364 330.829 215.55 333.776 239.276C334.181 242.37 334.451 246.049 334.519 249.345C335.261 280.046 320.186 303.007 294.21 310.725C288.067 312.829 279.968 313.999 273.634 314.336C275.164 316.44 277.582 320.04 279.675 324.236C280.901 326.666 282.184 329.198 284.524 330.019C290.723 331.324 298.406 331.954 305.831 332.572C310.837 332.989 315.574 333.371 319.838 333.956L321.143 334.091C323.156 334.294 324.484 334.429 325.395 335.554C326.329 336.713 326.16 338.288 325.98 339.806C324.889 347.951 322.324 354.589 318.42 359.989H359.977V180H360Z" fill="#F2F2F2"/>
<path d="M240.12 345.589C241.032 343.867 240.255 341.55 239.164 338.704C237.488 334.496 236.588 330.75 235.879 327.386C231.109 330.896 224.382 334.946 218.363 337.162C206.123 342.236 192.972 342.99 180.012 339.772V360H226.812C231.683 355.162 236.678 350.167 240.12 345.589Z" fill="#F2F2F2"/>
</g>
<g clip-path="url(#clip1_0_1)">
<path d="M180 360V180H65.0475C62.0662 196.335 62.5388 217.98 62.6963 222.908C62.6288 225.315 63.9788 226.237 66.8587 227.993C67.8938 228.6 68.58 228.847 68.9512 228.938C69.2213 228.263 69.5138 226.924 69.6825 226.136C70.1775 223.807 70.5825 221.963 72.1125 221.344C73.6312 220.792 74.79 221.254 75.645 221.591C75.8363 221.67 76.0275 221.749 76.23 221.816C80.9325 223.414 84.42 226.699 85.8262 230.816C86.8275 233.752 87.2213 238.444 83.43 244.159C82.3163 245.857 80.6738 247.545 79.0875 249.176C74.4075 253.958 72.495 256.522 75.06 259.357C99.945 292.264 113.558 298.496 152.843 313.279C153.968 313.706 154.924 314.055 155.7 314.325C157.646 315.023 158.378 315.292 158.895 315.799C159.716 316.609 159.761 317.857 159.03 318.757L158.771 319.016C158.636 319.129 144.45 330.829 120.724 333.776C117.63 334.181 113.951 334.451 110.655 334.519C79.9538 335.261 56.9925 320.186 49.275 294.21C47.1712 288.067 46.0013 279.968 45.6637 273.634C43.56 275.164 39.96 277.582 35.7637 279.675C33.3337 280.901 30.8025 282.184 29.9812 284.524C28.6762 290.723 28.0462 298.406 27.4275 305.831C27.0113 310.837 26.6287 315.574 26.0437 319.838L25.9088 321.143C25.7063 323.156 25.5712 324.484 24.4462 325.395C23.2875 326.329 21.7125 326.16 20.1937 325.98C12.0488 324.889 5.41124 322.324 0.0112457 318.42V359.977H180V360Z" fill="#F8F8F8"/>
<path d="M14.4108 240.12C16.132 241.031 18.4495 240.255 21.2958 239.164C25.5033 237.488 29.2495 236.588 32.6133 235.879C29.1033 231.109 25.0533 224.381 22.837 218.363C17.7633 206.123 17.0095 192.971 20.227 180.011H-0.000473022V226.811C4.83703 231.683 9.83202 236.678 14.4108 240.12Z" fill="#F8F8F8"/>
</g>
<g clip-path="url(#clip2_0_1)">
<path d="M0 180L180 180V65.0475C163.665 62.0662 142.02 62.5388 137.092 62.6963C134.685 62.6288 133.763 63.9788 132.007 66.8587C131.4 67.8938 131.153 68.58 131.062 68.9512C131.737 69.2213 133.076 69.5138 133.864 69.6825C136.193 70.1775 138.037 70.5825 138.656 72.1125C139.208 73.6312 138.746 74.79 138.409 75.645C138.33 75.8363 138.251 76.0275 138.184 76.23C136.586 80.9325 133.301 84.42 129.184 85.8262C126.248 86.8275 121.556 87.2213 115.841 83.43C114.143 82.3163 112.455 80.6738 110.824 79.0875C106.042 74.4075 103.478 72.495 100.643 75.06C67.7363 99.945 61.5037 113.558 46.7213 152.843C46.2937 153.968 45.945 154.924 45.675 155.7C44.9775 157.646 44.7075 158.378 44.2012 158.895C43.3913 159.716 42.1425 159.761 41.2425 159.03L40.9837 158.771C40.8712 158.636 29.1712 144.45 26.2238 120.724C25.8187 117.63 25.5487 113.951 25.4812 110.655C24.7387 79.9538 39.8138 56.9925 65.79 49.275C71.9325 47.1712 80.0325 46.0013 86.3662 45.6637C84.8362 43.56 82.4175 39.96 80.325 35.7637C79.0988 33.3337 77.8162 30.8025 75.4762 29.9812C69.2775 28.6762 61.5938 28.0462 54.1688 27.4275C49.1625 27.0113 44.4262 26.6287 40.1625 26.0437L38.8575 25.9088C36.8438 25.7063 35.5163 25.5712 34.605 24.4462C33.6712 23.2875 33.84 21.7125 34.02 20.1937C35.1113 12.0488 37.6763 5.41124 41.58 0.0112457H0.0225067L0.0225067 180H0Z" fill="#F2F2F2"/>
<path d="M119.88 14.4112C118.968 16.1325 119.745 18.45 120.836 21.2962C122.512 25.5037 123.412 29.25 124.121 32.6138C128.891 29.1038 135.618 25.0538 141.637 22.8375C153.877 17.7638 167.028 17.01 179.988 20.2275V0L133.188 0C128.317 4.8375 123.322 9.8325 119.88 14.4112Z" fill="#F2F2F2"/>
</g>
<g clip-path="url(#clip3_0_1)">
<path d="M180 0V180H294.952C297.934 163.665 297.461 142.02 297.304 137.092C297.371 134.685 296.021 133.763 293.141 132.007C292.106 131.4 291.42 131.153 291.049 131.062C290.779 131.737 290.486 133.076 290.317 133.864C289.822 136.193 289.418 138.037 287.888 138.656C286.369 139.208 285.21 138.746 284.355 138.409C284.164 138.33 283.972 138.251 283.77 138.184C279.067 136.586 275.58 133.301 274.174 129.184C273.173 126.248 272.779 121.556 276.57 115.841C277.684 114.143 279.326 112.455 280.912 110.824C285.592 106.042 287.505 103.478 284.94 100.643C260.055 67.7363 246.442 61.5037 207.157 46.7213C206.032 46.2937 205.076 45.945 204.3 45.675C202.354 44.9775 201.622 44.7075 201.105 44.2012C200.284 43.3913 200.239 42.1425 200.97 41.2425L201.229 40.9837C201.364 40.8712 215.55 29.1712 239.276 26.2238C242.37 25.8187 246.049 25.5487 249.345 25.4812C280.046 24.7387 303.007 39.8138 310.725 65.79C312.829 71.9325 313.999 80.0325 314.336 86.3662C316.44 84.8362 320.04 82.4175 324.236 80.325C326.666 79.0988 329.198 77.8162 330.019 75.4762C331.324 69.2775 331.954 61.5938 332.572 54.1688C332.989 49.1625 333.371 44.4262 333.956 40.1625L334.091 38.8575C334.294 36.8438 334.429 35.5163 335.554 34.605C336.713 33.6712 338.288 33.84 339.806 34.02C347.951 35.1113 354.589 37.6763 359.989 41.58V0.0225067H180V0Z" fill="#F8F8F8"/>
<path d="M345.589 119.88C343.868 118.969 341.55 119.745 338.704 120.836C334.497 122.512 330.75 123.412 327.387 124.121C330.897 128.891 334.947 135.619 337.163 141.637C342.237 153.877 342.99 167.029 339.773 179.989H360V133.189C355.163 128.317 350.168 123.322 345.589 119.88Z" fill="#F8F8F8"/>
</g>
<defs>
<clipPath id="clip0_0_1">
<rect width="180" height="180" fill="white" transform="translate(180 180)"/>
</clipPath>
<clipPath id="clip1_0_1">
<rect width="180" height="180" fill="white" transform="matrix(0 1 -1 0 180 180)"/>
</clipPath>
<clipPath id="clip2_0_1">
<rect width="180" height="180" fill="white" transform="matrix(-1 0 0 -1 180 180)"/>
</clipPath>
<clipPath id="clip3_0_1">
<rect width="180" height="180" fill="white" transform="matrix(0 -1 1 0 180 180)"/>
</clipPath>
</defs>
</svg>
