<?xml version="1.0" encoding="UTF-8" standalone="no"?>
<svg
   width="294"
   height="294"
   viewBox="0 0 294 294"
   fill="none"
   version="1.1"
   id="svg2"
   sodipodi:docname="icon.svg"
   xml:space="preserve"
   inkscape:version="1.4.2 (ebf0e940d0, 2025-05-08)"
   xmlns:inkscape="http://www.inkscape.org/namespaces/inkscape"
   xmlns:sodipodi="http://sodipodi.sourceforge.net/DTD/sodipodi-0.dtd"
   xmlns="http://www.w3.org/2000/svg"
   xmlns:svg="http://www.w3.org/2000/svg"><sodipodi:namedview
     id="namedview2"
     pagecolor="#505050"
     bordercolor="#eeeeee"
     borderopacity="1"
     inkscape:showpageshadow="0"
     inkscape:pageopacity="0"
     inkscape:pagecheckerboard="0"
     inkscape:deskcolor="#505050"
     inkscape:zoom="1.7725772"
     inkscape:cx="135.67815"
     inkscape:cy="156.55171"
     inkscape:window-width="1646"
     inkscape:window-height="959"
     inkscape:window-x="0"
     inkscape:window-y="0"
     inkscape:window-maximized="1"
     inkscape:current-layer="svg2" /><g
     id="g4"
     clip-path="url(#clipPath4)"><rect
       width="294"
       height="294"
       fill="#ee7749"
       id="rect1"
       x="0"
       y="0"
       style="display:inline" /><g
       clip-path="url(#clip0_0_1)"
       id="g2"><path
         d="M208.59 84H85.4095L40 210H53.1297L95.2311 96.0632H198.789L235.364 197.937H208.529V198.178C201.748 180.063 188.865 146.729 182.002 139.149C172.468 128.594 164.66 121.517 146.723 121.155C146.332 121.155 145.962 121.155 145.572 121.155C126.155 121.155 116.128 131.147 110.046 137.721C106.409 141.662 103.224 149.362 100.861 154.831C99.0118 159.113 91.7997 165.607 89.3135 169.99C86.6834 174.635 85.5739 184.004 85.5739 184.004L113.765 184.205L105.299 209.96H118.265L122.23 197.897L125.518 187.884L130.655 172.262L113.888 172.142L103.121 172.061C103.491 171.639 103.84 171.237 104.149 170.875C107.292 167.256 110.539 163.537 112.265 159.475L112.655 158.571C114.237 154.871 117.196 147.975 119.23 145.764C125.107 139.39 131.99 133.178 145.613 133.178C145.901 133.178 146.209 133.178 146.497 133.178C159.195 133.439 164.023 137.4 172.797 147.09C174.03 148.458 178.55 155.052 190.591 185.652L191.166 187.14C192.461 190.438 193.838 194.016 195.296 197.876L199.94 209.94H254.062L208.59 84Z"
         fill="white"
         id="path1" /><path
         d="M143.045 146.528C138.463 146.528 134.744 150.167 134.744 154.65C134.744 159.134 138.463 162.773 143.045 162.773C147.627 162.773 151.346 159.134 151.346 154.65C151.346 150.167 147.627 146.528 143.045 146.528Z"
         fill="white"
         id="path2" /></g></g><defs
     id="defs2"><clipPath
       id="clip0_0_1"><rect
         width="214"
         height="126"
         fill="white"
         transform="translate(40 84)"
         id="rect2" /></clipPath><clipPath
       clipPathUnits="userSpaceOnUse"
       id="clipPath4"><rect
         style="fill:#e01181;fill-opacity:0.499075;stroke-width:0.944882;paint-order:markers stroke fill"
         id="rect5"
         width="294"
         height="294"
         x="0"
         y="0"
         ry="44.822617" /></clipPath></defs></svg>
